<mxfile host="app.diagrams.net" modified="2023-08-04T06:48:50.105Z" agent="Mozilla/5.0 (Windows NT 10.0; Win64; x64) AppleWebKit/537.36 (KHTML, like Gecko) Chrome/115.0.0.0 Safari/537.36 Edg/115.0.1901.188" etag="abzu6e5bkPRiQ2p2Devc" version="21.6.3" type="device">
  <diagram name="Page-1" id="43ANGYT7u_GkjOWnEVst">
    <mxGraphModel dx="1274" dy="876" grid="0" gridSize="10" guides="1" tooltips="1" connect="1" arrows="1" fold="1" page="0" pageScale="1" pageWidth="1169" pageHeight="827" math="0" shadow="0">
      <root>
        <mxCell id="0" />
        <mxCell id="1" parent="0" />
        <mxCell id="vLeXJUMAxfoDCaLYJHlF-1" value="USER" style="swimlane;fontStyle=0;childLayout=stackLayout;horizontal=1;startSize=30;horizontalStack=0;resizeParent=1;resizeParentMax=0;resizeLast=0;collapsible=1;marginBottom=0;whiteSpace=wrap;html=1;" vertex="1" parent="1">
          <mxGeometry x="-345" y="-50" width="149" height="142" as="geometry" />
        </mxCell>
        <mxCell id="vLeXJUMAxfoDCaLYJHlF-39" value="- Id : int" style="text;strokeColor=none;fillColor=none;align=left;verticalAlign=middle;spacingLeft=4;spacingRight=4;overflow=hidden;points=[[0,0.5],[1,0.5]];portConstraint=eastwest;rotatable=0;whiteSpace=wrap;html=1;" vertex="1" parent="vLeXJUMAxfoDCaLYJHlF-1">
          <mxGeometry y="30" width="149" height="22" as="geometry" />
        </mxCell>
        <mxCell id="vLeXJUMAxfoDCaLYJHlF-3" value="- name : String" style="text;strokeColor=none;fillColor=none;align=left;verticalAlign=middle;spacingLeft=4;spacingRight=4;overflow=hidden;points=[[0,0.5],[1,0.5]];portConstraint=eastwest;rotatable=0;whiteSpace=wrap;html=1;" vertex="1" parent="vLeXJUMAxfoDCaLYJHlF-1">
          <mxGeometry y="52" width="149" height="22" as="geometry" />
        </mxCell>
        <mxCell id="vLeXJUMAxfoDCaLYJHlF-5" value="- Email&amp;nbsp; : String" style="text;strokeColor=none;fillColor=none;align=left;verticalAlign=middle;spacingLeft=4;spacingRight=4;overflow=hidden;points=[[0,0.5],[1,0.5]];portConstraint=eastwest;rotatable=0;whiteSpace=wrap;html=1;" vertex="1" parent="vLeXJUMAxfoDCaLYJHlF-1">
          <mxGeometry y="74" width="149" height="22" as="geometry" />
        </mxCell>
        <mxCell id="vLeXJUMAxfoDCaLYJHlF-6" value="- password : String" style="text;strokeColor=none;fillColor=none;align=left;verticalAlign=middle;spacingLeft=4;spacingRight=4;overflow=hidden;points=[[0,0.5],[1,0.5]];portConstraint=eastwest;rotatable=0;whiteSpace=wrap;html=1;" vertex="1" parent="vLeXJUMAxfoDCaLYJHlF-1">
          <mxGeometry y="96" width="149" height="25" as="geometry" />
        </mxCell>
        <mxCell id="vLeXJUMAxfoDCaLYJHlF-28" value="- About : String" style="text;strokeColor=none;fillColor=none;align=left;verticalAlign=middle;spacingLeft=4;spacingRight=4;overflow=hidden;points=[[0,0.5],[1,0.5]];portConstraint=eastwest;rotatable=0;whiteSpace=wrap;html=1;" vertex="1" parent="vLeXJUMAxfoDCaLYJHlF-1">
          <mxGeometry y="121" width="149" height="21" as="geometry" />
        </mxCell>
        <mxCell id="vLeXJUMAxfoDCaLYJHlF-32" value="" style="rounded=0;whiteSpace=wrap;html=1;" vertex="1" parent="1">
          <mxGeometry x="-345" y="92" width="148" height="92" as="geometry" />
        </mxCell>
        <mxCell id="vLeXJUMAxfoDCaLYJHlF-33" value="+ CreateUser()" style="text;html=1;strokeColor=none;fillColor=none;align=center;verticalAlign=middle;whiteSpace=wrap;rounded=0;" vertex="1" parent="1">
          <mxGeometry x="-344" y="92" width="93" height="22" as="geometry" />
        </mxCell>
        <mxCell id="vLeXJUMAxfoDCaLYJHlF-34" value="+ UpdateUser()" style="text;html=1;strokeColor=none;fillColor=none;align=center;verticalAlign=middle;whiteSpace=wrap;rounded=0;" vertex="1" parent="1">
          <mxGeometry x="-344" y="110" width="93" height="21" as="geometry" />
        </mxCell>
        <mxCell id="vLeXJUMAxfoDCaLYJHlF-35" value="+ getuserById()" style="text;html=1;strokeColor=none;fillColor=none;align=center;verticalAlign=middle;whiteSpace=wrap;rounded=0;" vertex="1" parent="1">
          <mxGeometry x="-344" y="128.5" width="93" height="19" as="geometry" />
        </mxCell>
        <mxCell id="vLeXJUMAxfoDCaLYJHlF-36" value="+ getAllUser()" style="text;html=1;strokeColor=none;fillColor=none;align=center;verticalAlign=middle;whiteSpace=wrap;rounded=0;" vertex="1" parent="1">
          <mxGeometry x="-347" y="147.5" width="93" height="19" as="geometry" />
        </mxCell>
        <mxCell id="vLeXJUMAxfoDCaLYJHlF-37" value="+ deleteUser()" style="text;html=1;strokeColor=none;fillColor=none;align=center;verticalAlign=middle;whiteSpace=wrap;rounded=0;" vertex="1" parent="1">
          <mxGeometry x="-345" y="165" width="93" height="19" as="geometry" />
        </mxCell>
        <mxCell id="vLeXJUMAxfoDCaLYJHlF-40" value="POST" style="swimlane;fontStyle=0;childLayout=stackLayout;horizontal=1;startSize=30;horizontalStack=0;resizeParent=1;resizeParentMax=0;resizeLast=0;collapsible=1;marginBottom=0;whiteSpace=wrap;html=1;" vertex="1" parent="1">
          <mxGeometry x="-19" y="-63" width="149" height="184" as="geometry" />
        </mxCell>
        <mxCell id="vLeXJUMAxfoDCaLYJHlF-41" value="- pId : int" style="text;strokeColor=none;fillColor=none;align=left;verticalAlign=middle;spacingLeft=4;spacingRight=4;overflow=hidden;points=[[0,0.5],[1,0.5]];portConstraint=eastwest;rotatable=0;whiteSpace=wrap;html=1;" vertex="1" parent="vLeXJUMAxfoDCaLYJHlF-40">
          <mxGeometry y="30" width="149" height="22" as="geometry" />
        </mxCell>
        <mxCell id="vLeXJUMAxfoDCaLYJHlF-42" value="- title : String" style="text;strokeColor=none;fillColor=none;align=left;verticalAlign=middle;spacingLeft=4;spacingRight=4;overflow=hidden;points=[[0,0.5],[1,0.5]];portConstraint=eastwest;rotatable=0;whiteSpace=wrap;html=1;" vertex="1" parent="vLeXJUMAxfoDCaLYJHlF-40">
          <mxGeometry y="52" width="149" height="22" as="geometry" />
        </mxCell>
        <mxCell id="vLeXJUMAxfoDCaLYJHlF-43" value="- content&amp;nbsp; : String" style="text;strokeColor=none;fillColor=none;align=left;verticalAlign=middle;spacingLeft=4;spacingRight=4;overflow=hidden;points=[[0,0.5],[1,0.5]];portConstraint=eastwest;rotatable=0;whiteSpace=wrap;html=1;" vertex="1" parent="vLeXJUMAxfoDCaLYJHlF-40">
          <mxGeometry y="74" width="149" height="22" as="geometry" />
        </mxCell>
        <mxCell id="vLeXJUMAxfoDCaLYJHlF-44" value="- image : String" style="text;strokeColor=none;fillColor=none;align=left;verticalAlign=middle;spacingLeft=4;spacingRight=4;overflow=hidden;points=[[0,0.5],[1,0.5]];portConstraint=eastwest;rotatable=0;whiteSpace=wrap;html=1;" vertex="1" parent="vLeXJUMAxfoDCaLYJHlF-40">
          <mxGeometry y="96" width="149" height="25" as="geometry" />
        </mxCell>
        <mxCell id="vLeXJUMAxfoDCaLYJHlF-77" value="- Date : String" style="text;strokeColor=none;fillColor=none;align=left;verticalAlign=middle;spacingLeft=4;spacingRight=4;overflow=hidden;points=[[0,0.5],[1,0.5]];portConstraint=eastwest;rotatable=0;whiteSpace=wrap;html=1;" vertex="1" parent="vLeXJUMAxfoDCaLYJHlF-40">
          <mxGeometry y="121" width="149" height="21" as="geometry" />
        </mxCell>
        <mxCell id="vLeXJUMAxfoDCaLYJHlF-76" value="- user_id : int" style="text;strokeColor=none;fillColor=none;align=left;verticalAlign=middle;spacingLeft=4;spacingRight=4;overflow=hidden;points=[[0,0.5],[1,0.5]];portConstraint=eastwest;rotatable=0;whiteSpace=wrap;html=1;" vertex="1" parent="vLeXJUMAxfoDCaLYJHlF-40">
          <mxGeometry y="142" width="149" height="21" as="geometry" />
        </mxCell>
        <mxCell id="vLeXJUMAxfoDCaLYJHlF-45" value="- category_id : int" style="text;strokeColor=none;fillColor=none;align=left;verticalAlign=middle;spacingLeft=4;spacingRight=4;overflow=hidden;points=[[0,0.5],[1,0.5]];portConstraint=eastwest;rotatable=0;whiteSpace=wrap;html=1;" vertex="1" parent="vLeXJUMAxfoDCaLYJHlF-40">
          <mxGeometry y="163" width="149" height="21" as="geometry" />
        </mxCell>
        <mxCell id="vLeXJUMAxfoDCaLYJHlF-46" value="" style="rounded=0;whiteSpace=wrap;html=1;" vertex="1" parent="1">
          <mxGeometry x="-18" y="121" width="148" height="154" as="geometry" />
        </mxCell>
        <mxCell id="vLeXJUMAxfoDCaLYJHlF-47" value="+ Createpost()" style="text;html=1;strokeColor=none;fillColor=none;align=center;verticalAlign=middle;whiteSpace=wrap;rounded=0;" vertex="1" parent="1">
          <mxGeometry x="-18" y="121" width="93" height="22" as="geometry" />
        </mxCell>
        <mxCell id="vLeXJUMAxfoDCaLYJHlF-48" value="+ UpdatePost()" style="text;html=1;strokeColor=none;fillColor=none;align=center;verticalAlign=middle;whiteSpace=wrap;rounded=0;" vertex="1" parent="1">
          <mxGeometry x="-17" y="139" width="93" height="21" as="geometry" />
        </mxCell>
        <mxCell id="vLeXJUMAxfoDCaLYJHlF-49" value="+ getpostById()" style="text;html=1;strokeColor=none;fillColor=none;align=center;verticalAlign=middle;whiteSpace=wrap;rounded=0;" vertex="1" parent="1">
          <mxGeometry x="-17" y="157.5" width="93" height="19" as="geometry" />
        </mxCell>
        <mxCell id="vLeXJUMAxfoDCaLYJHlF-50" value="+ getAllPost()" style="text;html=1;strokeColor=none;fillColor=none;align=center;verticalAlign=middle;whiteSpace=wrap;rounded=0;" vertex="1" parent="1">
          <mxGeometry x="-21" y="176.5" width="93" height="19" as="geometry" />
        </mxCell>
        <mxCell id="vLeXJUMAxfoDCaLYJHlF-51" value="+ deletepost()" style="text;html=1;strokeColor=none;fillColor=none;align=center;verticalAlign=middle;whiteSpace=wrap;rounded=0;" vertex="1" parent="1">
          <mxGeometry x="-20" y="194" width="93" height="19" as="geometry" />
        </mxCell>
        <mxCell id="vLeXJUMAxfoDCaLYJHlF-64" value="Category" style="swimlane;fontStyle=0;childLayout=stackLayout;horizontal=1;startSize=30;horizontalStack=0;resizeParent=1;resizeParentMax=0;resizeLast=0;collapsible=1;marginBottom=0;whiteSpace=wrap;html=1;" vertex="1" parent="1">
          <mxGeometry x="-21.5" y="399" width="149" height="96" as="geometry" />
        </mxCell>
        <mxCell id="vLeXJUMAxfoDCaLYJHlF-65" value="- Id : int" style="text;strokeColor=none;fillColor=none;align=left;verticalAlign=middle;spacingLeft=4;spacingRight=4;overflow=hidden;points=[[0,0.5],[1,0.5]];portConstraint=eastwest;rotatable=0;whiteSpace=wrap;html=1;" vertex="1" parent="vLeXJUMAxfoDCaLYJHlF-64">
          <mxGeometry y="30" width="149" height="22" as="geometry" />
        </mxCell>
        <mxCell id="vLeXJUMAxfoDCaLYJHlF-66" value="- title : String" style="text;strokeColor=none;fillColor=none;align=left;verticalAlign=middle;spacingLeft=4;spacingRight=4;overflow=hidden;points=[[0,0.5],[1,0.5]];portConstraint=eastwest;rotatable=0;whiteSpace=wrap;html=1;" vertex="1" parent="vLeXJUMAxfoDCaLYJHlF-64">
          <mxGeometry y="52" width="149" height="22" as="geometry" />
        </mxCell>
        <mxCell id="vLeXJUMAxfoDCaLYJHlF-67" value="- description&amp;nbsp; : String" style="text;strokeColor=none;fillColor=none;align=left;verticalAlign=middle;spacingLeft=4;spacingRight=4;overflow=hidden;points=[[0,0.5],[1,0.5]];portConstraint=eastwest;rotatable=0;whiteSpace=wrap;html=1;" vertex="1" parent="vLeXJUMAxfoDCaLYJHlF-64">
          <mxGeometry y="74" width="149" height="22" as="geometry" />
        </mxCell>
        <mxCell id="vLeXJUMAxfoDCaLYJHlF-70" value="" style="rounded=0;whiteSpace=wrap;html=1;" vertex="1" parent="1">
          <mxGeometry x="-21" y="495" width="148" height="108" as="geometry" />
        </mxCell>
        <mxCell id="vLeXJUMAxfoDCaLYJHlF-71" value="+ CreateCategory()" style="text;html=1;strokeColor=none;fillColor=none;align=center;verticalAlign=middle;whiteSpace=wrap;rounded=0;" vertex="1" parent="1">
          <mxGeometry x="-20" y="497" width="116" height="22" as="geometry" />
        </mxCell>
        <mxCell id="vLeXJUMAxfoDCaLYJHlF-72" value="+ deleteCategory()" style="text;html=1;strokeColor=none;fillColor=none;align=center;verticalAlign=middle;whiteSpace=wrap;rounded=0;" vertex="1" parent="1">
          <mxGeometry x="-17.5" y="538" width="105" height="21" as="geometry" />
        </mxCell>
        <mxCell id="vLeXJUMAxfoDCaLYJHlF-73" value="+ UpdateCategory()" style="text;html=1;strokeColor=none;fillColor=none;align=center;verticalAlign=middle;whiteSpace=wrap;rounded=0;" vertex="1" parent="1">
          <mxGeometry x="-20" y="518" width="113" height="19" as="geometry" />
        </mxCell>
        <mxCell id="vLeXJUMAxfoDCaLYJHlF-78" value="+ getpostByCategory()" style="text;html=1;strokeColor=none;fillColor=none;align=center;verticalAlign=middle;whiteSpace=wrap;rounded=0;" vertex="1" parent="1">
          <mxGeometry x="-13" y="213" width="128" height="17" as="geometry" />
        </mxCell>
        <mxCell id="vLeXJUMAxfoDCaLYJHlF-79" value="+ getpostByUser()" style="text;html=1;strokeColor=none;fillColor=none;align=center;verticalAlign=middle;whiteSpace=wrap;rounded=0;" vertex="1" parent="1">
          <mxGeometry x="-19" y="233" width="112.5" height="19" as="geometry" />
        </mxCell>
        <mxCell id="vLeXJUMAxfoDCaLYJHlF-80" value="+ SearchPost()" style="text;html=1;strokeColor=none;fillColor=none;align=center;verticalAlign=middle;whiteSpace=wrap;rounded=0;" vertex="1" parent="1">
          <mxGeometry x="-21" y="252" width="98" height="19" as="geometry" />
        </mxCell>
        <mxCell id="vLeXJUMAxfoDCaLYJHlF-81" value="Comment" style="swimlane;fontStyle=0;childLayout=stackLayout;horizontal=1;startSize=30;horizontalStack=0;resizeParent=1;resizeParentMax=0;resizeLast=0;collapsible=1;marginBottom=0;whiteSpace=wrap;html=1;" vertex="1" parent="1">
          <mxGeometry x="-341" y="306" width="149" height="96" as="geometry" />
        </mxCell>
        <mxCell id="vLeXJUMAxfoDCaLYJHlF-82" value="- Id: int" style="text;strokeColor=none;fillColor=none;align=left;verticalAlign=middle;spacingLeft=4;spacingRight=4;overflow=hidden;points=[[0,0.5],[1,0.5]];portConstraint=eastwest;rotatable=0;whiteSpace=wrap;html=1;" vertex="1" parent="vLeXJUMAxfoDCaLYJHlF-81">
          <mxGeometry y="30" width="149" height="22" as="geometry" />
        </mxCell>
        <mxCell id="vLeXJUMAxfoDCaLYJHlF-83" value="- content : String" style="text;strokeColor=none;fillColor=none;align=left;verticalAlign=middle;spacingLeft=4;spacingRight=4;overflow=hidden;points=[[0,0.5],[1,0.5]];portConstraint=eastwest;rotatable=0;whiteSpace=wrap;html=1;" vertex="1" parent="vLeXJUMAxfoDCaLYJHlF-81">
          <mxGeometry y="52" width="149" height="22" as="geometry" />
        </mxCell>
        <mxCell id="vLeXJUMAxfoDCaLYJHlF-84" value="- post&amp;nbsp; : String" style="text;strokeColor=none;fillColor=none;align=left;verticalAlign=middle;spacingLeft=4;spacingRight=4;overflow=hidden;points=[[0,0.5],[1,0.5]];portConstraint=eastwest;rotatable=0;whiteSpace=wrap;html=1;" vertex="1" parent="vLeXJUMAxfoDCaLYJHlF-81">
          <mxGeometry y="74" width="149" height="22" as="geometry" />
        </mxCell>
        <mxCell id="vLeXJUMAxfoDCaLYJHlF-87" value="" style="rounded=0;whiteSpace=wrap;html=1;" vertex="1" parent="1">
          <mxGeometry x="-341" y="402" width="149" height="60" as="geometry" />
        </mxCell>
        <mxCell id="vLeXJUMAxfoDCaLYJHlF-88" value="+ CreateComment()" style="text;html=1;strokeColor=none;fillColor=none;align=center;verticalAlign=middle;whiteSpace=wrap;rounded=0;" vertex="1" parent="1">
          <mxGeometry x="-343" y="407" width="123" height="25" as="geometry" />
        </mxCell>
        <mxCell id="vLeXJUMAxfoDCaLYJHlF-89" value="+ deleteComment()" style="text;html=1;strokeColor=none;fillColor=none;align=center;verticalAlign=middle;whiteSpace=wrap;rounded=0;" vertex="1" parent="1">
          <mxGeometry x="-342" y="424" width="123" height="25" as="geometry" />
        </mxCell>
        <mxCell id="vLeXJUMAxfoDCaLYJHlF-91" value="+ getCategory()" style="text;html=1;strokeColor=none;fillColor=none;align=center;verticalAlign=middle;whiteSpace=wrap;rounded=0;" vertex="1" parent="1">
          <mxGeometry x="-26.5" y="555" width="108.5" height="25" as="geometry" />
        </mxCell>
        <mxCell id="vLeXJUMAxfoDCaLYJHlF-92" value="+ getCategorys()" style="text;html=1;strokeColor=none;fillColor=none;align=center;verticalAlign=middle;whiteSpace=wrap;rounded=0;" vertex="1" parent="1">
          <mxGeometry x="-21.5" y="575" width="107.75" height="25" as="geometry" />
        </mxCell>
        <mxCell id="vLeXJUMAxfoDCaLYJHlF-93" value="" style="endArrow=classic;html=1;rounded=0;exitX=0.5;exitY=1;exitDx=0;exitDy=0;" edge="1" parent="1" source="vLeXJUMAxfoDCaLYJHlF-46">
          <mxGeometry width="50" height="50" relative="1" as="geometry">
            <mxPoint x="63" y="276" as="sourcePoint" />
            <mxPoint x="58" y="395" as="targetPoint" />
          </mxGeometry>
        </mxCell>
        <mxCell id="vLeXJUMAxfoDCaLYJHlF-94" value="1" style="text;html=1;strokeColor=none;fillColor=none;align=center;verticalAlign=middle;whiteSpace=wrap;rounded=0;" vertex="1" parent="1">
          <mxGeometry x="50.5" y="366" width="37" height="16" as="geometry" />
        </mxCell>
        <mxCell id="vLeXJUMAxfoDCaLYJHlF-95" value="N" style="text;html=1;strokeColor=none;fillColor=none;align=center;verticalAlign=middle;whiteSpace=wrap;rounded=0;" vertex="1" parent="1">
          <mxGeometry x="55.5" y="280" width="37" height="16" as="geometry" />
        </mxCell>
      </root>
    </mxGraphModel>
  </diagram>
</mxfile>
